<?xml version="1.0" encoding="UTF-8" standalone="no"?>
<!-- Created with Inkscape (http://www.inkscape.org/) -->

<svg
   width="402.10001mm"
   height="349.10001mm"
   viewBox="0 0 402.10001 349.10001"
   version="1.1"
   id="svg1"
   inkscape:version="1.4 (86a8ad7, 2024-10-11)"
   sodipodi:docname="ElectronicsBox.svg"
   xmlns:inkscape="http://www.inkscape.org/namespaces/inkscape"
   xmlns:sodipodi="http://sodipodi.sourceforge.net/DTD/sodipodi-0.dtd"
   xmlns="http://www.w3.org/2000/svg"
   xmlns:svg="http://www.w3.org/2000/svg">
  <sodipodi:namedview
     id="namedview1"
     pagecolor="#ffffff"
     bordercolor="#000000"
     borderopacity="0.25"
     inkscape:showpageshadow="2"
     inkscape:pageopacity="0.0"
     inkscape:pagecheckerboard="0"
     inkscape:deskcolor="#d1d1d1"
     inkscape:document-units="mm"
     inkscape:zoom="0.72426345"
     inkscape:cx="680.69153"
     inkscape:cy="778.0318"
     inkscape:window-width="1920"
     inkscape:window-height="1094"
     inkscape:window-x="-11"
     inkscape:window-y="-11"
     inkscape:window-maximized="1"
     inkscape:current-layer="layer1"
     showguides="true" />
  <defs
     id="defs1" />
  <g
     inkscape:label="Layer 1"
     inkscape:groupmode="layer"
     id="layer1"
     transform="translate(-9.9,-9.9)">
    <g
       id="g7" />
    <g
       id="g1"
       transform="translate(15.343174,5.1143912)">
      <g
         id="p-2"
         style="fill:none;stroke-linecap:round;stroke-linejoin:round">
        <path
           d="m 299.4,313 h -2.9 c -0.1,0 0,0.1 0,0 v -2.8 c 0,-0.1 -0.1,0 0,0 h 5.8 c 0.1,0 0,-0.1 0,0 v 2.8 c 0,0.1 0.1,0 0,0 z"
           stroke="#0000ff"
           stroke-width="0.2"
           id="path130" />
        <path
           d="m 311.4,313 h -2.9 c -0.1,0 0,0.1 0,0 v -2.8 c 0,-0.1 -0.1,0 0,0 h 5.8 c 0.1,0 0,-0.1 0,0 v 2.8 c 0,0.1 0.1,0 0,0 z"
           stroke="#0000ff"
           stroke-width="0.2"
           id="path131" />
        <path
           d="m 323.4,313 h -2.9 c -0.1,0 0,0.1 0,0 v -2.8 c 0,-0.1 -0.1,0 0,0 h 5.8 c 0.1,0 0,-0.1 0,0 v 2.8 c 0,0.1 0.1,0 0,0 z"
           stroke="#0000ff"
           stroke-width="0.2"
           id="path132" />
        <path
           d="m 367.4,310.2 h 2.9 c 0.1,0 0,-0.1 0,0 v 2.8 c 0,0.1 0.1,0 0,0 h -5.8 c -0.1,0 0,0.1 0,0 v -2.8 c 0,-0.1 -0.1,0 0,0 z"
           stroke="#0000ff"
           stroke-width="0.2"
           id="path133" />
        <path
           d="m 355.4,310.2 h 2.9 c 0.1,0 0,-0.1 0,0 v 2.8 c 0,0.1 0.1,0 0,0 h -5.8 c -0.1,0 0,0.1 0,0 v -2.8 c 0,-0.1 -0.1,0 0,0 z"
           stroke="#0000ff"
           stroke-width="0.2"
           id="path134" />
        <path
           d="m 343.4,310.2 h 2.9 c 0.1,0 0,-0.1 0,0 v 2.8 c 0,0.1 0.1,0 0,0 h -5.8 c -0.1,0 0,0.1 0,0 v -2.8 c 0,-0.1 -0.1,0 0,0 z"
           stroke="#0000ff"
           stroke-width="0.2"
           id="path135" />
        <path
           d="m 286.4,344.2 h 7.9 c 0.1,0 0,-0.1 0,0 v 2.9 c 0,0.055 0.045,0.1 0.1,0.1 h 6 c 0.055,0 0.1,-0.045 0.1,-0.1 v -2.9 c 0,-0.1 -0.1,0 0,0 h 5.8 c 0.1,0 0,-0.1 0,0 v 2.9 c 0,0.055 0.045,0.1 0.1,0.1 h 6 c 0.055,0 0.1,-0.045 0.1,-0.1 v -2.9 c 0,-0.1 -0.1,0 0,0 h 5.8 c 0.1,0 0,-0.1 0,0 v 2.9 c 0,0.055 0.045,0.1 0.1,0.1 h 6 c 0.055,0 0.1,-0.045 0.1,-0.1 v -2.9 c 0,-0.1 -0.1,0 0,0 h 5.8 c 0.1,0 0,-0.1 0,0 v 2.9 c 0,0.055 0.045,0.1 0.1,0.1 h 6 c 0.055,0 0.1,-0.045 0.1,-0.1 v -2.9 c 0,-0.1 -0.1,0 0,0 h 5.8 c 0.1,0 0,-0.1 0,0 v 2.9 c 0,0.055 0.045,0.1 0.1,0.1 h 6 c 0.055,0 0.1,-0.045 0.1,-0.1 v -2.9 c 0,-0.1 -0.1,0 0,0 h 5.8 c 0.1,0 0,-0.1 0,0 v 2.9 c 0,0.055 0.045,0.1 0.1,0.1 h 6 c 0.055,0 0.1,-0.045 0.1,-0.1 v -2.9 c 0,-0.1 -0.1,0 0,0 h 5.8 c 0.1,0 0,-0.1 0,0 v 2.9 c 0,0.055 0.045,0.1 0.1,0.1 h 6 c 0.055,0 0.1,-0.045 0.1,-0.1 v -2.9 c 0,-0.1 -0.1,0 0,0 h 7.9 c 0.055,0 0.1,-0.045 0.1,-0.1 v -9.4 c 0,-0.1 -0.1,0 0,0 h 2.9 c 0.055,0 0.1,-0.045 0.1,-0.1 v -6 c 0,-0.055 -0.045,-0.1 -0.1,-0.1 h -2.9 c -0.1,0 0,0.1 0,0 v -5.8 c 0,-0.1 -0.1,0 0,0 h 2.9 c 0.055,0 0.1,-0.045 0.1,-0.1 v -6 c 0,-0.055 -0.045,-0.1 -0.1,-0.1 h -2.9 c -0.1,0 0,0.1 0,0 v -9.4 c 0,-0.055 -0.045,-0.1 -0.1,-0.1 h -94 c -0.055,0 -0.1,0.045 -0.1,0.1 v 9.4 c 0,0.1 0.1,0 0,0 h -2.9 c -0.055,0 -0.1,0.045 -0.1,0.1 v 6 c 0,0.055 0.045,0.1 0.1,0.1 h 2.9 c 0.1,0 0,-0.1 0,0 v 5.8 c 0,0.1 0.1,0 0,0 h -2.9 c -0.055,0 -0.1,0.045 -0.1,0.1 v 6 c 0,0.055 0.045,0.1 0.1,0.1 h 2.9 c 0.1,0 0,-0.1 0,0 v 9.4 c 0,0.055 0.045,0.1 0.1,0.1"
           stroke="#000000"
           stroke-width="0.2"
           id="path136" />
      </g>
      <g
         id="p-3"
         style="fill:none;stroke-linecap:round;stroke-linejoin:round">
        <path
           d="m 299.4,271.3 h -2.9 c -0.1,0 0,0.1 0,0 v -2.8 c 0,-0.1 -0.1,0 0,0 h 5.8 c 0.1,0 0,-0.1 0,0 v 2.8 c 0,0.1 0.1,0 0,0 z"
           stroke="#0000ff"
           stroke-width="0.2"
           id="path137" />
        <path
           d="m 311.4,271.3 h -2.9 c -0.1,0 0,0.1 0,0 v -2.8 c 0,-0.1 -0.1,0 0,0 h 5.8 c 0.1,0 0,-0.1 0,0 v 2.8 c 0,0.1 0.1,0 0,0 z"
           stroke="#0000ff"
           stroke-width="0.2"
           id="path138" />
        <path
           d="m 323.4,271.3 h -2.9 c -0.1,0 0,0.1 0,0 v -2.8 c 0,-0.1 -0.1,0 0,0 h 5.8 c 0.1,0 0,-0.1 0,0 v 2.8 c 0,0.1 0.1,0 0,0 z"
           stroke="#0000ff"
           stroke-width="0.2"
           id="path139" />
        <path
           d="m 367.4,268.5 h 2.9 c 0.1,0 0,-0.1 0,0 v 2.8 c 0,0.1 0.1,0 0,0 h -5.8 c -0.1,0 0,0.1 0,0 v -2.8 c 0,-0.1 -0.1,0 0,0 z"
           stroke="#0000ff"
           stroke-width="0.2"
           id="path140" />
        <path
           d="m 355.4,268.5 h 2.9 c 0.1,0 0,-0.1 0,0 v 2.8 c 0,0.1 0.1,0 0,0 h -5.8 c -0.1,0 0,0.1 0,0 v -2.8 c 0,-0.1 -0.1,0 0,0 z"
           stroke="#0000ff"
           stroke-width="0.2"
           id="path141" />
        <path
           d="m 343.4,268.5 h 2.9 c 0.1,0 0,-0.1 0,0 v 2.8 c 0,0.1 0.1,0 0,0 h -5.8 c -0.1,0 0,0.1 0,0 v -2.8 c 0,-0.1 -0.1,0 0,0 z"
           stroke="#0000ff"
           stroke-width="0.2"
           id="path142" />
        <path
           d="m 286.4,302.5 h 7.9 c 0.1,0 0,-0.1 0,0 v 2.9 c 0,0.055 0.045,0.1 0.1,0.1 h 6 c 0.055,0 0.1,-0.045 0.1,-0.1 v -2.9 c 0,-0.1 -0.1,0 0,0 h 5.8 c 0.1,0 0,-0.1 0,0 v 2.9 c 0,0.055 0.045,0.1 0.1,0.1 h 6 c 0.055,0 0.1,-0.045 0.1,-0.1 v -2.9 c 0,-0.1 -0.1,0 0,0 h 5.8 c 0.1,0 0,-0.1 0,0 v 2.9 c 0,0.055 0.045,0.1 0.1,0.1 h 6 c 0.055,0 0.1,-0.045 0.1,-0.1 v -2.9 c 0,-0.1 -0.1,0 0,0 h 5.8 c 0.1,0 0,-0.1 0,0 v 2.9 c 0,0.055 0.045,0.1 0.1,0.1 h 6 c 0.055,0 0.1,-0.045 0.1,-0.1 v -2.9 c 0,-0.1 -0.1,0 0,0 h 5.8 c 0.1,0 0,-0.1 0,0 v 2.9 c 0,0.055 0.045,0.1 0.1,0.1 h 6 c 0.055,0 0.1,-0.045 0.1,-0.1 v -2.9 c 0,-0.1 -0.1,0 0,0 h 5.8 c 0.1,0 0,-0.1 0,0 v 2.9 c 0,0.055 0.045,0.1 0.1,0.1 h 6 c 0.055,0 0.1,-0.045 0.1,-0.1 v -2.9 c 0,-0.1 -0.1,0 0,0 h 5.8 c 0.1,0 0,-0.1 0,0 v 2.9 c 0,0.055 0.045,0.1 0.1,0.1 h 6 c 0.055,0 0.1,-0.045 0.1,-0.1 v -2.9 c 0,-0.1 -0.1,0 0,0 h 7.9 c 0.055,0 0.1,-0.045 0.1,-0.1 V 293 c 0,-0.1 -0.1,0 0,0 h 2.9 c 0.055,0 0.1,-0.045 0.1,-0.1 v -6 c 0,-0.055 -0.045,-0.1 -0.1,-0.1 h -2.9 c -0.1,0 0,0.1 0,0 V 281 c 0,-0.1 -0.1,0 0,0 h 2.9 c 0.055,0 0.1,-0.045 0.1,-0.1 v -6 c 0,-0.055 -0.045,-0.1 -0.1,-0.1 h -2.9 c -0.1,0 0,0.1 0,0 v -9.4 c 0,-0.055 -0.045,-0.1 -0.1,-0.1 h -94 c -0.055,0 -0.1,0.045 -0.1,0.1 v 9.4 c 0,0.1 0.1,0 0,0 h -2.9 c -0.055,0 -0.1,0.045 -0.1,0.1 v 6 c 0,0.055 0.045,0.1 0.1,0.1 h 2.9 c 0.1,0 0,-0.1 0,0 v 5.8 c 0,0.1 0.1,0 0,0 h -2.9 c -0.055,0 -0.1,0.045 -0.1,0.1 v 6 c 0,0.055 0.045,0.1 0.1,0.1 h 2.9 c 0.1,0 0,-0.1 0,0 v 9.4 c 0,0.055 0.045,0.1 0.1,0.1"
           stroke="#000000"
           stroke-width="0.2"
           id="path143" />
      </g>
      <g
         id="p-7"
         style="fill:none;stroke-linecap:round;stroke-linejoin:round">
        <path
           d="m 17.908,63.4 h 9.9 c 0.1,0 0,-0.1 0,0 v 2.9 c 0,0.055 0.045,0.1 0.1,0.1 h 6 c 0.056,0 0.1,-0.045 0.1,-0.1 v -2.9 c 0,-0.1 -0.1,0 0,0 h 5.8 c 0.1,0 0,-0.1 0,0 v 2.9 c 0,0.055 0.045,0.1 0.1,0.1 h 6 c 0.056,0 0.1,-0.045 0.1,-0.1 v -2.9 c 0,-0.1 -0.1,0 0,0 h 5.8 c 0.1,0 0,-0.1 0,0 v 2.9 c 0,0.055 0.045,0.1 0.1,0.1 h 6 c 0.056,0 0.1,-0.045 0.1,-0.1 v -2.9 c 0,-0.1 -0.1,0 0,0 h 9.9 c 0.056,0 0.1,-0.045 0.1,-0.1 v -9.9 c 0,-0.1 -0.1,0 0,0 h 2.9 c 0.056,0 0.1,-0.045 0.1,-0.1 v -6 c 0,-0.055 -0.044,-0.1 -0.1,-0.1 h -2.9 c -0.1,0 0,0.1 0,0 v -5.8 c 0,-0.1 -0.1,0 0,0 h 2.9 c 0.056,0 0.1,-0.045 0.1,-0.1 v -6 c 0,-0.055 -0.044,-0.1 -0.1,-0.1 h -2.9 c -0.1,0 0,0.1 0,0 v -5.8 c 0,-0.1 -0.1,0 0,0 h 2.9 c 0.056,0 0.1,-0.045 0.1,-0.1 v -6 c 0,-0.055 -0.044,-0.1 -0.1,-0.1 h -2.9 c -0.1,0 0,0.1 0,0 v -9.9 c 0,-0.055 -0.044,-0.1 -0.1,-0.1 -0.026,0 -0.052,0.011 -0.07,0.029 l -50,50 c -0.019,0.019 -0.03,0.044 -0.03,0.071 0,0.055 0.045,0.1 0.1,0.1 z"
           stroke="#000000"
           stroke-width="0.2"
           id="path175" />
        <path
           d="m 51.242,45.733 c 0.172,0 0.341,0.05 0.486,0.143 0.145,0.093 0.261,0.227 0.332,0.383 0.072,0.157 0.097,0.332 0.072,0.502 -0.024,0.171 -0.097,0.331 -0.21,0.462 -0.113,0.13 -0.261,0.225 -0.427,0.274 -0.165,0.048 -0.341,0.048 -0.507,0 -0.165,-0.049 -0.314,-0.144 -0.427,-0.274 -0.113,-0.131 -0.186,-0.291 -0.21,-0.462 -0.025,-0.17 0,-0.345 0.072,-0.502 0.072,-0.156 0.187,-0.29 0.332,-0.383 0.145,-0.093 0.314,-0.143 0.487,-0.143 z"
           stroke="#0000ff"
           stroke-width="0.2"
           id="path176" />
        <path
           d="m 63.1,13 h -9.9 c -0.1,0 0,0.1 0,0 V 10.1 C 53.2,10.045 53.155,10 53.1,10 h -6 C 47.045,10 47,10.045 47,10.1 V 13 c 0,0.1 0.1,0 0,0 h -5.8 c -0.1,0 0,0.1 0,0 V 10.1 C 41.2,10.045 41.155,10 41.1,10 h -6 C 35.045,10 35,10.045 35,10.1 V 13 c 0,0.1 0.1,0 0,0 h -5.8 c -0.1,0 0,0.1 0,0 V 10.1 C 29.2,10.045 29.155,10 29.1,10 h -6 C 23.045,10 23,10.045 23,10.1 V 13 c 0,0.1 0.1,0 0,0 H 13.1 C 13.045,13 13,13.045 13,13.1 V 23 c 0,0.1 0.1,0 0,0 H 10.1 C 10.045,23 10,23.045 10,23.1 v 6 c 0,0.055 0.045,0.1 0.1,0.1 H 13 c 0.1,0 0,-0.1 0,0 V 35 c 0,0.1 0.1,0 0,0 H 10.1 C 10.045,35 10,35.045 10,35.1 v 6 c 0,0.055 0.045,0.1 0.1,0.1 H 13 c 0.1,0 0,-0.1 0,0 V 47 c 0,0.1 0.1,0 0,0 H 10.1 C 10.045,47 10,47.045 10,47.1 v 6 c 0,0.055 0.045,0.1 0.1,0.1 H 13 c 0.1,0 0,-0.1 0,0 v 9.9 c 0,0.055 0.045,0.1 0.1,0.1 0.027,0 0.052,-0.011 0.071,-0.029 l 50,-50 C 63.189,13.152 63.2,13.127 63.2,13.1 63.2,13.045 63.155,13 63.1,13 Z"
           stroke="#000000"
           stroke-width="0.2"
           id="path177" />
        <path
           d="m 29.767,30.667 c -0.173,0 -0.342,-0.05 -0.487,-0.143 -0.145,-0.093 -0.26,-0.227 -0.332,-0.383 -0.072,-0.157 -0.097,-0.332 -0.072,-0.502 0.024,-0.171 0.098,-0.331 0.21,-0.462 0.113,-0.13 0.262,-0.225 0.427,-0.274 0.166,-0.048 0.342,-0.048 0.507,0 0.166,0.049 0.314,0.144 0.427,0.274 0.113,0.131 0.186,0.291 0.211,0.462 0.024,0.17 -0.001,0.345 -0.073,0.502 -0.071,0.156 -0.187,0.29 -0.332,0.383 -0.145,0.093 -0.314,0.143 -0.486,0.143 z"
           stroke="#0000ff"
           stroke-width="0.2"
           id="path178" />
        <path
           d="m 80.417,63.4 h 9.9 c 0.1,0 0,-0.1 0,0 v 2.9 c 0,0.055 0.044,0.1 0.1,0.1 h 6 c 0.055,0 0.1,-0.045 0.1,-0.1 v -2.9 c 0,-0.1 -0.1,0 0,0 h 5.8 c 0.1,0 0,-0.1 0,0 v 2.9 c 0,0.055 0.044,0.1 0.1,0.1 h 6 c 0.055,0 0.1,-0.045 0.1,-0.1 v -2.9 c 0,-0.1 -0.1,0 0,0 h 5.8 c 0.1,0 0,-0.1 0,0 v 2.9 c 0,0.055 0.044,0.1 0.1,0.1 h 6 c 0.055,0 0.1,-0.045 0.1,-0.1 v -2.9 c 0,-0.1 -0.1,0 0,0 h 9.9 c 0.055,0 0.1,-0.045 0.1,-0.1 v -9.9 c 0,-0.1 -0.1,0 0,0 h 2.9 c 0.055,0 0.1,-0.045 0.1,-0.1 v -6 c 0,-0.055 -0.045,-0.1 -0.1,-0.1 h -2.9 c -0.1,0 0,0.1 0,0 v -5.8 c 0,-0.1 -0.1,0 0,0 h 2.9 c 0.055,0 0.1,-0.045 0.1,-0.1 v -6 c 0,-0.055 -0.045,-0.1 -0.1,-0.1 h -2.9 c -0.1,0 0,0.1 0,0 v -5.8 c 0,-0.1 -0.1,0 0,0 h 2.9 c 0.055,0 0.1,-0.045 0.1,-0.1 v -6 c 0,-0.055 -0.045,-0.1 -0.1,-0.1 h -2.9 c -0.1,0 0,0.1 0,0 v -9.9 c 0,-0.055 -0.045,-0.1 -0.1,-0.1 -0.027,0 -0.052,0.011 -0.071,0.029 l -50,50 c -0.019,0.019 -0.029,0.044 -0.029,0.071 0,0.055 0.044,0.1 0.1,0.1 z"
           stroke="#000000"
           stroke-width="0.2"
           id="path179" />
        <path
           d="m 113.75,45.733 c 0.173,0 0.341,0.05 0.487,0.143 0.145,0.093 0.26,0.227 0.332,0.383 0.071,0.157 0.096,0.332 0.072,0.502 -0.025,0.171 -0.098,0.331 -0.211,0.462 -0.113,0.13 -0.261,0.225 -0.426,0.274 -0.166,0.048 -0.342,0.048 -0.508,0 -0.165,-0.049 -0.313,-0.144 -0.426,-0.274 -0.113,-0.131 -0.186,-0.291 -0.211,-0.462 -0.024,-0.17 0.001,-0.345 0.072,-0.502 0.072,-0.156 0.187,-0.29 0.332,-0.383 0.146,-0.093 0.314,-0.143 0.487,-0.143 z"
           stroke="#0000ff"
           stroke-width="0.2"
           id="path180" />
        <path
           d="m 125.608,13 h -9.9 c -0.1,0 0,0.1 0,0 v -2.9 c 0,-0.055 -0.044,-0.1 -0.1,-0.1 h -6 c -0.055,0 -0.1,0.045 -0.1,0.1 V 13 c 0,0.1 0.1,0 0,0 h -5.8 c -0.1,0 0,0.1 0,0 v -2.9 c 0,-0.055 -0.044,-0.1 -0.1,-0.1 h -6 c -0.055,0 -0.1,0.045 -0.1,0.1 V 13 c 0,0.1 0.1,0 0,0 h -5.8 c -0.1,0 0,0.1 0,0 v -2.9 c 0,-0.055 -0.044,-0.1 -0.1,-0.1 h -6 c -0.055,0 -0.1,0.045 -0.1,0.1 V 13 c 0,0.1 0.1,0 0,0 h -9.9 c -0.055,0 -0.1,0.045 -0.1,0.1 V 23 c 0,0.1 0.1,0 0,0 h -2.9 c -0.055,0 -0.1,0.045 -0.1,0.1 v 6 c 0,0.055 0.045,0.1 0.1,0.1 h 2.9 c 0.1,0 0,-0.1 0,0 V 35 c 0,0.1 0.1,0 0,0 h -2.9 c -0.055,0 -0.1,0.045 -0.1,0.1 v 6 c 0,0.055 0.045,0.1 0.1,0.1 h 2.9 c 0.1,0 0,-0.1 0,0 V 47 c 0,0.1 0.1,0 0,0 h -2.9 c -0.055,0 -0.1,0.045 -0.1,0.1 v 6 c 0,0.055 0.045,0.1 0.1,0.1 h 2.9 c 0.1,0 0,-0.1 0,0 v 9.9 c 0,0.055 0.045,0.1 0.1,0.1 0.027,0 0.052,-0.011 0.071,-0.029 l 50,-50 c 0.019,-0.019 0.029,-0.044 0.029,-0.071 0,-0.055 -0.044,-0.1 -0.1,-0.1 z"
           stroke="#000000"
           stroke-width="0.2"
           id="path181" />
        <path
           d="m 92.275,30.667 c -0.173,0 -0.341,-0.05 -0.487,-0.143 -0.145,-0.093 -0.26,-0.227 -0.332,-0.383 -0.071,-0.157 -0.096,-0.332 -0.072,-0.502 0.025,-0.171 0.098,-0.331 0.211,-0.462 0.113,-0.13 0.261,-0.225 0.426,-0.274 0.166,-0.048 0.342,-0.048 0.508,0 0.165,0.049 0.313,0.144 0.426,0.274 0.113,0.131 0.186,0.291 0.211,0.462 0.024,0.17 -10e-4,0.345 -0.072,0.502 -0.072,0.156 -0.187,0.29 -0.332,0.383 -0.146,0.093 -0.314,0.143 -0.487,0.143 z"
           stroke="#0000ff"
           stroke-width="0.2"
           id="path182" />
      </g>
      <g
         id="g232">
        <path
           d="m 28.167,145.333 c 0,0.269 -0.077,0.531 -0.223,0.757 -0.145,0.226 -0.352,0.405 -0.596,0.517 -0.244,0.111 -0.515,0.15 -0.781,0.112 -0.265,-0.038 -0.514,-0.152 -0.717,-0.328 -0.203,-0.175 -0.351,-0.406 -0.427,-0.663 -0.075,-0.258 -0.075,-0.532 0,-0.789 0.076,-0.258 0.224,-0.488 0.427,-0.664 0.203,-0.175 0.452,-0.289 0.717,-0.327 0.266,-0.039 0.537,0 0.781,0.112 0.244,0.111 0.451,0.291 0.596,0.516 0.146,0.226 0.223,0.489 0.223,0.757 z"
           stroke="#0000ff"
           stroke-width="0.2"
           id="path170"
           style="fill:none;stroke-linecap:round;stroke-linejoin:round" />
        <path
           d="m 10.1,162.1 h 265.6 c 0.055,0 0.1,-0.045 0.1,-0.1 V 68 c 0,-0.055 -0.045,-0.1 -0.1,-0.1 H 10.1 C 10.045,67.9 10,67.945 10,68 v 94 c 0,0.055 0.045,0.1 0.1,0.1"
           stroke="#000000"
           stroke-width="0.2"
           id="path171"
           style="fill:none;fill-opacity:1;stroke-linecap:round;stroke-linejoin:round" />
        <path
           d="m 259.033,143.933 c 0.269,0 0.531,0.077 0.757,0.223 0.226,0.145 0.405,0.352 0.517,0.596 0.111,0.244 0.15,0.515 0.112,0.781 -0.038,0.265 -0.152,0.514 -0.328,0.717 -0.175,0.203 -0.406,0.351 -0.663,0.427 -0.258,0.075 -0.532,0.075 -0.789,0 -0.258,-0.076 -0.488,-0.224 -0.664,-0.427 -0.175,-0.203 -0.289,-0.452 -0.327,-0.717 -0.039,-0.266 0,-0.537 0.112,-0.781 0.111,-0.244 0.291,-0.451 0.516,-0.596 0.226,-0.146 0.489,-0.223 0.757,-0.223 z"
           stroke="#0000ff"
           stroke-width="0.2"
           id="path172"
           style="fill:none;stroke-linecap:round;stroke-linejoin:round" />
        <path
           d="m 257.633,84.667 c 0,-0.269 0.077,-0.531 0.223,-0.757 0.145,-0.226 0.352,-0.405 0.596,-0.517 0.244,-0.111 0.515,-0.15 0.781,-0.112 0.265,0.038 0.514,0.152 0.717,0.328 0.203,0.175 0.351,0.406 0.427,0.663 0.075,0.258 0.075,0.532 0,0.789 -0.076,0.258 -0.224,0.488 -0.427,0.664 -0.203,0.175 -0.452,0.289 -0.717,0.327 -0.266,0.039 -0.537,0 -0.781,-0.112 -0.244,-0.111 -0.451,-0.291 -0.596,-0.516 -0.146,-0.226 -0.223,-0.489 -0.223,-0.757 z"
           stroke="#0000ff"
           stroke-width="0.2"
           id="path173"
           style="fill:none;stroke-linecap:round;stroke-linejoin:round" />
        <path
           d="m 26.767,86.067 c -0.269,0 -0.531,-0.077 -0.757,-0.223 -0.226,-0.145 -0.405,-0.352 -0.517,-0.596 -0.111,-0.244 -0.15,-0.515 -0.112,-0.781 0.038,-0.265 0.152,-0.514 0.328,-0.717 0.175,-0.203 0.406,-0.351 0.663,-0.427 0.258,-0.075 0.532,-0.075 0.789,0 0.258,0.076 0.488,0.224 0.664,0.427 0.175,0.203 0.289,0.452 0.327,0.717 0.039,0.266 0,0.537 -0.112,0.781 -0.111,0.244 -0.291,0.451 -0.516,0.596 -0.226,0.146 -0.489,0.223 -0.757,0.223 z"
           stroke="#0000ff"
           stroke-width="0.2"
           id="path174"
           style="fill:none;stroke-linecap:round;stroke-linejoin:round" />
        <path
           d="m 105.90022,150.60013 c -0.269,0 -0.531,-0.077 -0.757,-0.223 -0.226,-0.145 -0.405,-0.352 -0.517,-0.596 -0.111,-0.244 -0.15,-0.515 -0.112,-0.781 0.038,-0.265 0.152,-0.514 0.328,-0.717 0.175,-0.203 0.406,-0.351 0.663,-0.427 0.258,-0.075 0.532,-0.075 0.789,0 0.258,0.076 0.488,0.224 0.664,0.427 0.175,0.203 0.289,0.452 0.327,0.717 0.039,0.266 0,0.537 -0.112,0.781 -0.111,0.244 -0.291,0.451 -0.516,0.596 -0.226,0.146 -0.489,0.223 -0.757,0.223 z"
           stroke="#0000ff"
           stroke-width="0.2"
           id="path174-8"
           style="fill:none;stroke-linecap:round;stroke-linejoin:round" />
        <path
           id="rect224"
           style="fill:none;fill-opacity:1;stroke:#0000ff;stroke-width:0.2;stroke-dasharray:none;stroke-opacity:1"
           d="m 134.7,143.45 h 16.4 v 4 h -16.4 z" />
        <path
           d="m 179.90022,150.60013 c -0.269,0 -0.531,-0.077 -0.757,-0.223 -0.226,-0.145 -0.405,-0.352 -0.517,-0.596 -0.111,-0.244 -0.15,-0.515 -0.112,-0.781 0.038,-0.265 0.152,-0.514 0.328,-0.717 0.175,-0.203 0.406,-0.351 0.663,-0.427 0.258,-0.075 0.532,-0.075 0.789,0 0.258,0.076 0.488,0.224 0.664,0.427 0.175,0.203 0.289,0.452 0.327,0.717 0.039,0.266 0,0.537 -0.112,0.781 -0.111,0.244 -0.291,0.451 -0.516,0.596 -0.226,0.146 -0.489,0.223 -0.757,0.223 z"
           stroke="#0000ff"
           stroke-width="0.2"
           id="path174-5"
           style="fill:none;stroke-linecap:round;stroke-linejoin:round" />
        <path
           d="m 179.90022,139.85013 c -0.269,0 -0.531,-0.077 -0.757,-0.223 -0.226,-0.145 -0.405,-0.352 -0.517,-0.596 -0.111,-0.244 -0.15,-0.515 -0.112,-0.781 0.038,-0.265 0.152,-0.514 0.328,-0.717 0.175,-0.203 0.406,-0.351 0.663,-0.427 0.258,-0.075 0.532,-0.075 0.789,0 0.258,0.076 0.488,0.224 0.664,0.427 0.175,0.203 0.289,0.452 0.327,0.717 0.039,0.266 0,0.537 -0.112,0.781 -0.111,0.244 -0.291,0.451 -0.516,0.596 -0.226,0.146 -0.489,0.223 -0.757,0.223 z"
           stroke="#0000ff"
           stroke-width="0.2"
           id="path174-5-1"
           style="fill:none;stroke-linecap:round;stroke-linejoin:round" />
        <path
           d="m 105.90022,139.85013 c -0.269,0 -0.531,-0.077 -0.757,-0.223 -0.226,-0.145 -0.405,-0.352 -0.517,-0.596 -0.111,-0.244 -0.15,-0.515 -0.112,-0.781 0.038,-0.265 0.152,-0.514 0.328,-0.717 0.175,-0.203 0.406,-0.351 0.663,-0.427 0.258,-0.075 0.532,-0.075 0.789,0 0.258,0.076 0.488,0.224 0.664,0.427 0.175,0.203 0.289,0.452 0.327,0.717 0.039,0.266 0,0.537 -0.112,0.781 -0.111,0.244 -0.291,0.451 -0.516,0.596 -0.226,0.146 -0.489,0.223 -0.757,0.223 z"
           stroke="#0000ff"
           stroke-width="0.2"
           id="path174-5-7"
           style="fill:none;stroke-linecap:round;stroke-linejoin:round" />
      </g>
      <g
         id="g10">
        <g
           id="g17">
          <g
             id="p-4"
             style="fill:none;stroke-linecap:round;stroke-linejoin:round">
            <path
               d="m 26.1,271.3 h -2.9 c -0.1,0 0,0.1 0,0 v -2.8 c 0,-0.1 -0.1,0 0,0 H 29 c 0.1,0 0,-0.1 0,0 v 2.8 c 0,0.1 0.1,0 0,0 z"
               stroke="#0000ff"
               stroke-width="0.2"
               id="path144" />
            <path
               d="m 38.1,271.3 h -2.9 c -0.1,0 0,0.1 0,0 v -2.8 c 0,-0.1 -0.1,0 0,0 H 41 c 0.1,0 0,-0.1 0,0 v 2.8 c 0,0.1 0.1,0 0,0 z"
               stroke="#0000ff"
               stroke-width="0.2"
               id="path145" />
            <path
               d="m 50.1,271.3 h -2.9 c -0.1,0 0,0.1 0,0 v -2.8 c 0,-0.1 -0.1,0 0,0 H 53 c 0.1,0 0,-0.1 0,0 v 2.8 c 0,0.1 0.1,0 0,0 z"
               stroke="#0000ff"
               stroke-width="0.2"
               id="path146" />
            <path
               d="m 265.7,268.5 h 2.9 c 0.1,0 0,-0.1 0,0 v 2.8 c 0,0.1 0.1,0 0,0 h -5.8 c -0.1,0 0,0.1 0,0 v -2.8 c 0,-0.1 -0.1,0 0,0 z"
               stroke="#0000ff"
               stroke-width="0.2"
               id="path147" />
            <path
               d="m 253.7,268.5 h 2.9 c 0.1,0 0,-0.1 0,0 v 2.8 c 0,0.1 0.1,0 0,0 h -5.8 c -0.1,0 0,0.1 0,0 v -2.8 c 0,-0.1 -0.1,0 0,0 z"
               stroke="#0000ff"
               stroke-width="0.2"
               id="path148" />
            <path
               d="m 241.7,268.5 h 2.9 c 0.1,0 0,-0.1 0,0 v 2.8 c 0,0.1 0.1,0 0,0 h -5.8 c -0.1,0 0,0.1 0,0 v -2.8 c 0,-0.1 -0.1,0 0,0 z"
               stroke="#0000ff"
               stroke-width="0.2"
               id="path149" />
            <path
               d="m 13.1,302.5 h 9.7 c 0.1,0 0,-0.1 0,0 v 2.9 c 0,0.055 0.045,0.1 0.1,0.1 h 6 c 0.055,0 0.1,-0.045 0.1,-0.1 v -2.9 c 0,-0.1 -0.1,0 0,0 h 5.8 c 0.1,0 0,-0.1 0,0 v 2.9 c 0,0.055 0.045,0.1 0.1,0.1 h 6 c 0.055,0 0.1,-0.045 0.1,-0.1 v -2.9 c 0,-0.1 -0.1,0 0,0 h 5.8 c 0.1,0 0,-0.1 0,0 v 2.9 c 0,0.055 0.045,0.1 0.1,0.1 h 6 c 0.055,0 0.1,-0.045 0.1,-0.1 v -2.9 c 0,-0.1 -0.1,0 0,0 h 5.8 c 0.1,0 0,-0.1 0,0 v 2.9 c 0,0.055 0.045,0.1 0.1,0.1 h 6 c 0.055,0 0.1,-0.045 0.1,-0.1 v -2.9 c 0,-0.1 -0.1,0 0,0 h 5.8 c 0.1,0 0,-0.1 0,0 v 2.9 c 0,0.055 0.045,0.1 0.1,0.1 h 6 c 0.055,0 0.1,-0.045 0.1,-0.1 v -2.9 c 0,-0.1 -0.1,0 0,0 h 5.8 c 0.1,0 0,-0.1 0,0 v 2.9 c 0,0.055 0.045,0.1 0.1,0.1 h 6 c 0.055,0 0.1,-0.045 0.1,-0.1 v -2.9 c 0,-0.1 -0.1,0 0,0 h 5.8 c 0.1,0 0,-0.1 0,0 v 2.9 c 0,0.055 0.045,0.1 0.1,0.1 h 6 c 0.055,0 0.1,-0.045 0.1,-0.1 v -2.9 c 0,-0.1 -0.1,0 0,0 h 5.8 c 0.1,0 0,-0.1 0,0 v 2.9 c 0,0.055 0.045,0.1 0.1,0.1 h 6 c 0.055,0 0.1,-0.045 0.1,-0.1 v -2.9 c 0,-0.1 -0.1,0 0,0 h 5.8 c 0.1,0 0,-0.1 0,0 v 2.9 c 0,0.055 0.045,0.1 0.1,0.1 h 6 c 0.055,0 0.1,-0.045 0.1,-0.1 v -2.9 c 0,-0.1 -0.1,0 0,0 h 5.8 c 0.1,0 0,-0.1 0,0 v 2.9 c 0,0.055 0.045,0.1 0.1,0.1 h 6 c 0.055,0 0.1,-0.045 0.1,-0.1 v -2.9 c 0,-0.1 -0.1,0 0,0 h 5.8 c 0.1,0 0,-0.1 0,0 v 2.9 c 0,0.055 0.045,0.1 0.1,0.1 h 6 c 0.055,0 0.1,-0.045 0.1,-0.1 v -2.9 c 0,-0.1 -0.1,0 0,0 h 5.8 c 0.1,0 0,-0.1 0,0 v 2.9 c 0,0.055 0.045,0.1 0.1,0.1 h 6 c 0.055,0 0.1,-0.045 0.1,-0.1 v -2.9 c 0,-0.1 -0.1,0 0,0 h 5.8 c 0.1,0 0,-0.1 0,0 v 2.9 c 0,0.055 0.045,0.1 0.1,0.1 h 6 c 0.055,0 0.1,-0.045 0.1,-0.1 v -2.9 c 0,-0.1 -0.1,0 0,0 h 5.8 c 0.1,0 0,-0.1 0,0 v 2.9 c 0,0.055 0.045,0.1 0.1,0.1 h 6 c 0.055,0 0.1,-0.045 0.1,-0.1 v -2.9 c 0,-0.1 -0.1,0 0,0 h 5.8 c 0.1,0 0,-0.1 0,0 v 2.9 c 0,0.055 0.045,0.1 0.1,0.1 h 6 c 0.055,0 0.1,-0.045 0.1,-0.1 v -2.9 c 0,-0.1 -0.1,0 0,0 h 5.8 c 0.1,0 0,-0.1 0,0 v 2.9 c 0,0.055 0.045,0.1 0.1,0.1 h 6 c 0.055,0 0.1,-0.045 0.1,-0.1 v -2.9 c 0,-0.1 -0.1,0 0,0 h 5.8 c 0.1,0 0,-0.1 0,0 v 2.9 c 0,0.055 0.045,0.1 0.1,0.1 h 6 c 0.055,0 0.1,-0.045 0.1,-0.1 v -2.9 c 0,-0.1 -0.1,0 0,0 h 5.8 c 0.1,0 0,-0.1 0,0 v 2.9 c 0,0.055 0.045,0.1 0.1,0.1 h 6 c 0.055,0 0.1,-0.045 0.1,-0.1 v -2.9 c 0,-0.1 -0.1,0 0,0 h 5.8 c 0.1,0 0,-0.1 0,0 v 2.9 c 0,0.055 0.045,0.1 0.1,0.1 h 6 c 0.055,0 0.1,-0.045 0.1,-0.1 v -2.9 c 0,-0.1 -0.1,0 0,0 h 5.8 c 0.1,0 0,-0.1 0,0 v 2.9 c 0,0.055 0.045,0.1 0.1,0.1 h 6 c 0.055,0 0.1,-0.045 0.1,-0.1 v -2.9 c 0,-0.1 -0.1,0 0,0 h 5.8 c 0.1,0 0,-0.1 0,0 v 2.9 c 0,0.055 0.045,0.1 0.1,0.1 h 6 c 0.055,0 0.1,-0.045 0.1,-0.1 v -2.9 c 0,-0.1 -0.1,0 0,0 h 9.7 3 c 0.055,0 0.1,-0.045 0.1,-0.1 v -9.5 c 0,-0.055 -0.045,-0.1 -0.1,-0.1 h -2.9 c -0.1,0 0,0.1 0,0 V 287 c 0,-0.1 -0.1,0 0,0 h 2.9 c 0.055,0 0.1,-0.045 0.1,-0.1 v -6 c 0,-0.055 -0.045,-0.1 -0.1,-0.1 h -2.9 c -0.1,0 0,0.1 0,0 V 275 c 0,-0.1 -0.1,0 0,0 h 2.9 c 0.055,0 0.1,-0.045 0.1,-0.1 v -9.5 c 0,-0.055 -0.045,-0.1 -0.1,-0.1 h -3 -265.6 -3 c -0.055,0 -0.1,0.045 -0.1,0.1 v 9.5 c 0,0.055 0.045,0.1 0.1,0.1 H 13 c 0.1,0 0,-0.1 0,0 v 5.8 c 0,0.1 0.1,0 0,0 h -2.9 c -0.055,0 -0.1,0.045 -0.1,0.1 v 6 c 0,0.055 0.045,0.1 0.1,0.1 H 13 c 0.1,0 0,-0.1 0,0 v 5.8 c 0,0.1 0.1,0 0,0 h -2.9 c -0.055,0 -0.1,0.045 -0.1,0.1 v 9.5 c 0,0.055 0.045,0.1 0.1,0.1 h 3"
               stroke="#000000"
               stroke-width="0.2"
               id="path150" />
          </g>
          <circle
             style="fill:none;fill-opacity:1;stroke:#0000ff;stroke-width:0.2;stroke-dasharray:none;stroke-opacity:1"
             id="path233"
             cx="145.89999"
             cy="297.21771"
             r="2.5" />
        </g>
      </g>
      <path
         d="m 18.5,256.7 c 0,0.268 -0.077,0.531 -0.222,0.757 -0.145,0.226 -0.352,0.405 -0.596,0.516 -0.245,0.112 -0.516,0.151 -0.781,0.113 -0.266,-0.038 -0.515,-0.152 -0.718,-0.328 -0.203,-0.176 -0.351,-0.406 -0.426,-0.664 -0.076,-0.257 -0.076,-0.531 0,-0.788 0.075,-0.258 0.223,-0.488 0.426,-0.664 0.203,-0.176 0.452,-0.29 0.718,-0.328 0.265,-0.038 0.536,0.001 0.781,0.113 0.244,0.111 0.451,0.29 0.596,0.516 0.145,0.226 0.222,0.489 0.222,0.757 z"
         stroke="#0000ff"
         stroke-width="0.2"
         id="path151"
         style="fill:none;stroke-linecap:round;stroke-linejoin:round" />
      <path
         d="m 17.1,263.8 h 10 9.8 c 0.055,0 0.1,-0.045 0.1,-0.1 v -2.9 c 0,-0.1 -0.1,0 0,0 h 5.8 c 0.1,0 0,-0.1 0,0 v 2.9 c 0,0.055 0.045,0.1 0.1,0.1 h 6 c 0.055,0 0.1,-0.045 0.1,-0.1 v -2.9 c 0,-0.1 -0.1,0 0,0 h 5.8 c 0.1,0 0,-0.1 0,0 v 2.9 c 0,0.055 0.045,0.1 0.1,0.1 h 6 c 0.055,0 0.1,-0.045 0.1,-0.1 v -2.9 c 0,-0.1 -0.1,0 0,0 h 5.8 c 0.1,0 0,-0.1 0,0 v 2.9 c 0,0.055 0.045,0.1 0.1,0.1 h 6 c 0.055,0 0.1,-0.045 0.1,-0.1 v -2.9 c 0,-0.1 -0.1,0 0,0 h 5.8 c 0.1,0 0,-0.1 0,0 v 2.9 c 0,0.055 0.045,0.1 0.1,0.1 h 6 c 0.055,0 0.1,-0.045 0.1,-0.1 v -2.9 c 0,-0.1 -0.1,0 0,0 h 5.8 c 0.1,0 0,-0.1 0,0 v 2.9 c 0,0.055 0.045,0.1 0.1,0.1 h 6 c 0.055,0 0.1,-0.045 0.1,-0.1 v -2.9 c 0,-0.1 -0.1,0 0,0 h 5.8 c 0.1,0 0,-0.1 0,0 v 2.9 c 0,0.055 0.045,0.1 0.1,0.1 h 6 c 0.055,0 0.1,-0.045 0.1,-0.1 v -2.9 c 0,-0.1 -0.1,0 0,0 h 5.8 c 0.1,0 0,-0.1 0,0 v 2.9 c 0,0.055 0.045,0.1 0.1,0.1 h 6 c 0.055,0 0.1,-0.045 0.1,-0.1 v -2.9 c 0,-0.1 -0.1,0 0,0 h 5.8 c 0.1,0 0,-0.1 0,0 v 2.9 c 0,0.055 0.045,0.1 0.1,0.1 h 6 c 0.055,0 0.1,-0.045 0.1,-0.1 v -2.9 c 0,-0.1 -0.1,0 0,0 h 5.8 c 0.1,0 0,-0.1 0,0 v 2.9 c 0,0.055 0.045,0.1 0.1,0.1 h 6 c 0.055,0 0.1,-0.045 0.1,-0.1 v -2.9 c 0,-0.1 -0.1,0 0,0 h 5.8 c 0.1,0 0,-0.1 0,0 v 2.9 c 0,0.055 0.045,0.1 0.1,0.1 h 6 c 0.055,0 0.1,-0.045 0.1,-0.1 v -2.9 c 0,-0.1 -0.1,0 0,0 h 5.8 c 0.1,0 0,-0.1 0,0 v 2.9 c 0,0.055 0.045,0.1 0.1,0.1 h 6 c 0.055,0 0.1,-0.045 0.1,-0.1 v -2.9 c 0,-0.1 -0.1,0 0,0 h 5.8 c 0.1,0 0,-0.1 0,0 v 2.9 c 0,0.055 0.045,0.1 0.1,0.1 h 6 c 0.055,0 0.1,-0.045 0.1,-0.1 v -2.9 c 0,-0.1 -0.1,0 0,0 h 5.8 c 0.1,0 0,-0.1 0,0 v 2.9 c 0,0.055 0.045,0.1 0.1,0.1 h 6 c 0.055,0 0.1,-0.045 0.1,-0.1 v -2.9 c 0,-0.1 -0.1,0 0,0 h 5.8 c 0.1,0 0,-0.1 0,0 v 2.9 c 0,0.055 0.045,0.1 0.1,0.1 h 6 c 0.055,0 0.1,-0.045 0.1,-0.1 v -2.9 c 0,-0.1 -0.1,0 0,0 h 5.8 c 0.1,0 0,-0.1 0,0 v 2.9 c 0,0.055 0.045,0.1 0.1,0.1 h 6 c 0.055,0 0.1,-0.045 0.1,-0.1 v -2.9 c 0,-0.1 -0.1,0 0,0 h 5.8 c 0.1,0 0,-0.1 0,0 v 2.9 c 0,0.055 0.045,0.1 0.1,0.1 h 6 c 0.055,0 0.1,-0.045 0.1,-0.1 v -2.9 c 0,-0.1 -0.1,0 0,0 h 5.8 c 0.1,0 0,-0.1 0,0 v 2.9 c 0,0.055 0.045,0.1 0.1,0.1 h 6 c 0.055,0 0.1,-0.045 0.1,-0.1 v -2.9 c 0,-0.1 -0.1,0 0,0 h 5.8 c 0.1,0 0,-0.1 0,0 v 2.9 c 0,0.055 0.045,0.1 0.1,0.1 h 6 c 0.055,0 0.1,-0.045 0.1,-0.1 v -2.9 c 0,-0.1 -0.1,0 0,0 h 5.8 c 0.1,0 0,-0.1 0,0 v 2.9 c 0,0.055 0.045,0.1 0.1,0.1 h 6 c 0.055,0 0.1,-0.045 0.1,-0.1 v -2.9 c 0,-0.1 -0.1,0 0,0 h 5.8 c 0.1,0 0,-0.1 0,0 v 2.9 c 0,0.055 0.045,0.1 0.1,0.1 h 6 c 0.055,0 0.1,-0.045 0.1,-0.1 v -2.9 c 0,-0.1 -0.1,0 0,0 h 5.8 c 0.1,0 0,-0.1 0,0 v 2.9 c 0,0.055 0.045,0.1 0.1,0.1 h 9.8 10 c 1.246,0 2.471,-0.328 3.55,-0.951 1.079,-0.623 1.976,-1.52 2.599,-2.599 0.623,-1.079 0.951,-2.304 0.951,-3.55 v -86 c 0,-1.246 -0.328,-2.471 -0.951,-3.55 -0.623,-1.079 -1.52,-1.976 -2.599,-2.599 -1.079,-0.623 -2.304,-0.951 -3.55,-0.951 h -10 -9.8 c -0.055,0 -0.1,0.045 -0.1,0.1 v 2.9 c 0,0.1 0.1,0 0,0 H 277 c -0.1,0 0,0.1 0,0 v -2.9 c 0,-0.055 -0.045,-0.1 -0.1,-0.1 h -6 c -0.055,0 -0.1,0.045 -0.1,0.1 v 2.9 c 0,0.1 0.1,0 0,0 H 265 c -0.1,0 0,0.1 0,0 v -2.9 c 0,-0.055 -0.045,-0.1 -0.1,-0.1 h -6 c -0.055,0 -0.1,0.045 -0.1,0.1 v 2.9 c 0,0.1 0.1,0 0,0 H 253 c -0.1,0 0,0.1 0,0 v -2.9 c 0,-0.055 -0.045,-0.1 -0.1,-0.1 h -6 c -0.055,0 -0.1,0.045 -0.1,0.1 v 2.9 c 0,0.1 0.1,0 0,0 H 241 c -0.1,0 0,0.1 0,0 v -2.9 c 0,-0.055 -0.045,-0.1 -0.1,-0.1 h -6 c -0.055,0 -0.1,0.045 -0.1,0.1 v 2.9 c 0,0.1 0.1,0 0,0 H 229 c -0.1,0 0,0.1 0,0 v -2.9 c 0,-0.055 -0.045,-0.1 -0.1,-0.1 h -6 c -0.055,0 -0.1,0.045 -0.1,0.1 v 2.9 c 0,0.1 0.1,0 0,0 H 217 c -0.1,0 0,0.1 0,0 v -2.9 c 0,-0.055 -0.045,-0.1 -0.1,-0.1 h -6 c -0.055,0 -0.1,0.045 -0.1,0.1 v 2.9 c 0,0.1 0.1,0 0,0 H 205 c -0.1,0 0,0.1 0,0 v -2.9 c 0,-0.055 -0.045,-0.1 -0.1,-0.1 h -6 c -0.055,0 -0.1,0.045 -0.1,0.1 v 2.9 c 0,0.1 0.1,0 0,0 H 193 c -0.1,0 0,0.1 0,0 v -2.9 c 0,-0.055 -0.045,-0.1 -0.1,-0.1 h -6 c -0.055,0 -0.1,0.045 -0.1,0.1 v 2.9 c 0,0.1 0.1,0 0,0 H 181 c -0.1,0 0,0.1 0,0 v -2.9 c 0,-0.055 -0.045,-0.1 -0.1,-0.1 h -6 c -0.055,0 -0.1,0.045 -0.1,0.1 v 2.9 c 0,0.1 0.1,0 0,0 H 169 c -0.1,0 0,0.1 0,0 v -2.9 c 0,-0.055 -0.045,-0.1 -0.1,-0.1 h -6 c -0.055,0 -0.1,0.045 -0.1,0.1 v 2.9 c 0,0.1 0.1,0 0,0 H 157 c -0.1,0 0,0.1 0,0 v -2.9 c 0,-0.055 -0.045,-0.1 -0.1,-0.1 h -6 c -0.055,0 -0.1,0.045 -0.1,0.1 v 2.9 c 0,0.1 0.1,0 0,0 H 145 c -0.1,0 0,0.1 0,0 v -2.9 c 0,-0.055 -0.045,-0.1 -0.1,-0.1 h -6 c -0.055,0 -0.1,0.045 -0.1,0.1 v 2.9 c 0,0.1 0.1,0 0,0 H 133 c -0.1,0 0,0.1 0,0 v -2.9 c 0,-0.055 -0.045,-0.1 -0.1,-0.1 h -6 c -0.055,0 -0.1,0.045 -0.1,0.1 v 2.9 c 0,0.1 0.1,0 0,0 H 121 c -0.1,0 0,0.1 0,0 v -2.9 c 0,-0.055 -0.045,-0.1 -0.1,-0.1 h -6 c -0.055,0 -0.1,0.045 -0.1,0.1 v 2.9 c 0,0.1 0.1,0 0,0 H 109 c -0.1,0 0,0.1 0,0 v -2.9 c 0,-0.055 -0.045,-0.1 -0.1,-0.1 h -6 c -0.055,0 -0.1,0.045 -0.1,0.1 v 2.9 c 0,0.1 0.1,0 0,0 H 97 c -0.1,0 0,0.1 0,0 v -2.9 c 0,-0.055 -0.045,-0.1 -0.1,-0.1 h -6 c -0.055,0 -0.1,0.045 -0.1,0.1 v 2.9 c 0,0.1 0.1,0 0,0 H 85 c -0.1,0 0,0.1 0,0 v -2.9 c 0,-0.055 -0.045,-0.1 -0.1,-0.1 h -6 c -0.055,0 -0.1,0.045 -0.1,0.1 v 2.9 c 0,0.1 0.1,0 0,0 H 73 c -0.1,0 0,0.1 0,0 v -2.9 c 0,-0.055 -0.045,-0.1 -0.1,-0.1 h -6 c -0.055,0 -0.1,0.045 -0.1,0.1 v 2.9 c 0,0.1 0.1,0 0,0 H 61 c -0.1,0 0,0.1 0,0 v -2.9 c 0,-0.055 -0.045,-0.1 -0.1,-0.1 h -6 c -0.055,0 -0.1,0.045 -0.1,0.1 v 2.9 c 0,0.1 0.1,0 0,0 H 49 c -0.1,0 0,0.1 0,0 v -2.9 c 0,-0.055 -0.045,-0.1 -0.1,-0.1 h -6 c -0.055,0 -0.1,0.045 -0.1,0.1 v 2.9 c 0,0.1 0.1,0 0,0 H 37 c -0.1,0 0,0.1 0,0 v -2.9 c 0,-0.055 -0.045,-0.1 -0.1,-0.1 h -9.8 -10 c -1.246,0 -2.471,0.328 -3.55,0.951 -1.079,0.623 -1.976,1.52 -2.599,2.599 C 10.328,168.229 10,169.454 10,170.7 v 86 c 0,1.246 0.328,2.471 0.951,3.55 0.623,1.079 1.52,1.976 2.599,2.599 1.079,0.623 2.304,0.951 3.55,0.951"
         stroke="#000000"
         stroke-width="0.2"
         id="path152"
         style="fill:none;stroke-linecap:round;stroke-linejoin:round" />
      <path
         d="m 302.7,255.3 c 0.268,0 0.531,0.077 0.757,0.222 0.226,0.145 0.405,0.352 0.516,0.596 0.112,0.245 0.151,0.516 0.113,0.781 -0.038,0.266 -0.152,0.515 -0.328,0.718 -0.176,0.203 -0.406,0.351 -0.664,0.426 -0.257,0.076 -0.531,0.076 -0.788,0 -0.258,-0.075 -0.488,-0.223 -0.664,-0.426 -0.176,-0.203 -0.29,-0.452 -0.328,-0.718 -0.038,-0.265 10e-4,-0.536 0.113,-0.781 0.111,-0.244 0.29,-0.451 0.516,-0.596 0.226,-0.145 0.489,-0.222 0.757,-0.222 z"
         stroke="#0000ff"
         stroke-width="0.2"
         id="path153"
         style="fill:none;stroke-linecap:round;stroke-linejoin:round" />
      <path
         d="m 295.7,249.7 v 2.9 c 0,0.1 0.1,0 0,0 h -2.8 c -0.1,0 0,0.1 0,0 v -5.8 c 0,-0.1 -0.1,0 0,0 h 2.8 c 0.1,0 0,-0.1 0,0 z"
         stroke="#0000ff"
         stroke-width="0.2"
         id="path154"
         style="fill:none;stroke-linecap:round;stroke-linejoin:round" />
      <path
         d="m 295.7,237.7 v 2.9 c 0,0.1 0.1,0 0,0 h -2.8 c -0.1,0 0,0.1 0,0 v -5.8 c 0,-0.1 -0.1,0 0,0 h 2.8 c 0.1,0 0,-0.1 0,0 z"
         stroke="#0000ff"
         stroke-width="0.2"
         id="path155"
         style="fill:none;stroke-linecap:round;stroke-linejoin:round" />
      <path
         d="m 295.7,225.7 v 2.9 c 0,0.1 0.1,0 0,0 h -2.8 c -0.1,0 0,0.1 0,0 v -5.8 c 0,-0.1 -0.1,0 0,0 h 2.8 c 0.1,0 0,-0.1 0,0 z"
         stroke="#0000ff"
         stroke-width="0.2"
         id="path156"
         style="fill:none;stroke-linecap:round;stroke-linejoin:round" />
      <path
         d="m 295.7,213.7 v 2.9 c 0,0.1 0.1,0 0,0 h -2.8 c -0.1,0 0,0.1 0,0 v -5.8 c 0,-0.1 -0.1,0 0,0 h 2.8 c 0.1,0 0,-0.1 0,0 z"
         stroke="#0000ff"
         stroke-width="0.2"
         id="path157"
         style="fill:none;stroke-linecap:round;stroke-linejoin:round" />
      <path
         d="m 295.7,201.7 v 2.9 c 0,0.1 0.1,0 0,0 h -2.8 c -0.1,0 0,0.1 0,0 v -5.8 c 0,-0.1 -0.1,0 0,0 h 2.8 c 0.1,0 0,-0.1 0,0 z"
         stroke="#0000ff"
         stroke-width="0.2"
         id="path158"
         style="fill:none;stroke-linecap:round;stroke-linejoin:round" />
      <path
         d="m 295.7,189.7 v 2.9 c 0,0.1 0.1,0 0,0 h -2.8 c -0.1,0 0,0.1 0,0 v -5.8 c 0,-0.1 -0.1,0 0,0 h 2.8 c 0.1,0 0,-0.1 0,0 z"
         stroke="#0000ff"
         stroke-width="0.2"
         id="path159"
         style="fill:none;stroke-linecap:round;stroke-linejoin:round" />
      <path
         d="m 295.7,177.7 v 2.9 c 0,0.1 0.1,0 0,0 h -2.8 c -0.1,0 0,0.1 0,0 v -5.8 c 0,-0.1 -0.1,0 0,0 h 2.8 c 0.1,0 0,-0.1 0,0 z"
         stroke="#0000ff"
         stroke-width="0.2"
         id="path160"
         style="fill:none;stroke-linecap:round;stroke-linejoin:round" />
      <path
         d="m 301.3,170.7 c 0,-0.268 0.077,-0.531 0.222,-0.757 0.145,-0.226 0.352,-0.405 0.596,-0.516 0.245,-0.112 0.516,-0.151 0.781,-0.113 0.266,0.038 0.515,0.152 0.718,0.328 0.203,0.176 0.351,0.406 0.426,0.664 0.076,0.257 0.076,0.531 0,0.788 -0.075,0.258 -0.223,0.488 -0.426,0.664 -0.203,0.176 -0.452,0.29 -0.718,0.328 -0.265,0.038 -0.536,-0.001 -0.781,-0.113 -0.244,-0.111 -0.451,-0.29 -0.596,-0.516 -0.145,-0.226 -0.222,-0.489 -0.222,-0.757 z"
         stroke="#0000ff"
         stroke-width="0.2"
         id="path161"
         style="fill:none;stroke-linecap:round;stroke-linejoin:round" />
      <path
         d="m 17.1,172.1 c -0.268,0 -0.531,-0.077 -0.757,-0.222 -0.226,-0.145 -0.405,-0.352 -0.516,-0.596 -0.112,-0.245 -0.151,-0.516 -0.113,-0.781 0.038,-0.266 0.152,-0.515 0.328,-0.718 0.176,-0.203 0.406,-0.351 0.664,-0.426 0.257,-0.076 0.531,-0.076 0.788,0 0.258,0.075 0.488,0.223 0.664,0.426 0.176,0.203 0.29,0.452 0.328,0.718 0.038,0.265 -0.001,0.536 -0.113,0.781 -0.111,0.244 -0.29,0.451 -0.516,0.596 -0.226,0.145 -0.489,0.222 -0.757,0.222 z"
         stroke="#0000ff"
         stroke-width="0.2"
         id="path162"
         style="fill:none;stroke-linecap:round;stroke-linejoin:round" />
      <path
         d="m 24.1,177.7 v -2.9 c 0,-0.1 -0.1,0 0,0 h 2.8 c 0.1,0 0,-0.1 0,0 v 5.8 c 0,0.1 0.1,0 0,0 h -2.8 c -0.1,0 0,0.1 0,0 z"
         stroke="#0000ff"
         stroke-width="0.2"
         id="path163"
         style="fill:none;stroke-linecap:round;stroke-linejoin:round" />
      <path
         d="m 24.1,189.7 v -2.9 c 0,-0.1 -0.1,0 0,0 h 2.8 c 0.1,0 0,-0.1 0,0 v 5.8 c 0,0.1 0.1,0 0,0 h -2.8 c -0.1,0 0,0.1 0,0 z"
         stroke="#0000ff"
         stroke-width="0.2"
         id="path164"
         style="fill:none;stroke-linecap:round;stroke-linejoin:round" />
      <path
         d="m 24.1,201.7 v -2.9 c 0,-0.1 -0.1,0 0,0 h 2.8 c 0.1,0 0,-0.1 0,0 v 5.8 c 0,0.1 0.1,0 0,0 h -2.8 c -0.1,0 0,0.1 0,0 z"
         stroke="#0000ff"
         stroke-width="0.2"
         id="path165"
         style="fill:none;stroke-linecap:round;stroke-linejoin:round" />
      <path
         d="m 24.1,213.7 v -2.9 c 0,-0.1 -0.1,0 0,0 h 2.8 c 0.1,0 0,-0.1 0,0 v 5.8 c 0,0.1 0.1,0 0,0 h -2.8 c -0.1,0 0,0.1 0,0 z"
         stroke="#0000ff"
         stroke-width="0.2"
         id="path166"
         style="fill:none;stroke-linecap:round;stroke-linejoin:round" />
      <path
         d="m 24.1,225.7 v -2.9 c 0,-0.1 -0.1,0 0,0 h 2.8 c 0.1,0 0,-0.1 0,0 v 5.8 c 0,0.1 0.1,0 0,0 h -2.8 c -0.1,0 0,0.1 0,0 z"
         stroke="#0000ff"
         stroke-width="0.2"
         id="path167"
         style="fill:none;stroke-linecap:round;stroke-linejoin:round" />
      <path
         d="m 24.1,237.7 v -2.9 c 0,-0.1 -0.1,0 0,0 h 2.8 c 0.1,0 0,-0.1 0,0 v 5.8 c 0,0.1 0.1,0 0,0 h -2.8 c -0.1,0 0,0.1 0,0 z"
         stroke="#0000ff"
         stroke-width="0.2"
         id="path168"
         style="fill:none;stroke-linecap:round;stroke-linejoin:round" />
      <path
         d="m 24.1,249.7 v -2.9 c 0,-0.1 -0.1,0 0,0 h 2.8 c 0.1,0 0,-0.1 0,0 v 5.8 c 0,0.1 0.1,0 0,0 h -2.8 c -0.1,0 0,0.1 0,0 z"
         stroke="#0000ff"
         stroke-width="0.2"
         id="path169"
         style="fill:none;stroke-linecap:round;stroke-linejoin:round" />
      <ellipse
         style="fill:none;stroke:#0000ff;stroke-width:0.185185"
         id="path1-7"
         cx="143.79999"
         cy="257.19998"
         rx="1.1574074"
         ry="1.1574073" />
      <g
         id="g21">
        <circle
           style="fill:none;stroke:#0000ff;stroke-width:0.185185"
           id="path1"
           cx="85.799988"
           cy="234.2"
           r="1.1574073" />
        <ellipse
           style="fill:none;stroke:#0000ff;stroke-width:0.185185"
           id="path1-2"
           cx="85.799988"
           cy="257.19998"
           rx="1.1574074"
           ry="1.1574073" />
        <ellipse
           style="fill:none;stroke:#0000ff;stroke-width:0.185185"
           id="path1-1"
           cx="143.79999"
           cy="234.2"
           rx="1.1574074"
           ry="1.1574073" />
      </g>
      <g
         id="g16">
        <g
           id="p-1"
           style="fill:none;stroke-linecap:round;stroke-linejoin:round">
          <path
             d="m 26.1,313 h -2.9 c -0.1,0 0,0.1 0,0 v -2.8 c 0,-0.1 -0.1,0 0,0 H 29 c 0.1,0 0,-0.1 0,0 v 2.8 c 0,0.1 0.1,0 0,0 z"
             stroke="#0000ff"
             stroke-width="0.2"
             id="path123" />
          <path
             d="m 38.1,313 h -2.9 c -0.1,0 0,0.1 0,0 v -2.8 c 0,-0.1 -0.1,0 0,0 H 41 c 0.1,0 0,-0.1 0,0 v 2.8 c 0,0.1 0.1,0 0,0 z"
             stroke="#0000ff"
             stroke-width="0.2"
             id="path124" />
          <path
             d="m 50.1,313 h -2.9 c -0.1,0 0,0.1 0,0 v -2.8 c 0,-0.1 -0.1,0 0,0 H 53 c 0.1,0 0,-0.1 0,0 v 2.8 c 0,0.1 0.1,0 0,0 z"
             stroke="#0000ff"
             stroke-width="0.2"
             id="path125" />
          <path
             d="m 265.7,310.2 h 2.9 c 0.1,0 0,-0.1 0,0 v 2.8 c 0,0.1 0.1,0 0,0 h -5.8 c -0.1,0 0,0.1 0,0 v -2.8 c 0,-0.1 -0.1,0 0,0 z"
             stroke="#0000ff"
             stroke-width="0.2"
             id="path126" />
          <path
             d="m 253.7,310.2 h 2.9 c 0.1,0 0,-0.1 0,0 v 2.8 c 0,0.1 0.1,0 0,0 h -5.8 c -0.1,0 0,0.1 0,0 v -2.8 c 0,-0.1 -0.1,0 0,0 z"
             stroke="#0000ff"
             stroke-width="0.2"
             id="path127" />
          <path
             d="m 241.7,310.2 h 2.9 c 0.1,0 0,-0.1 0,0 v 2.8 c 0,0.1 0.1,0 0,0 h -5.8 c -0.1,0 0,0.1 0,0 v -2.8 c 0,-0.1 -0.1,0 0,0 z"
             stroke="#0000ff"
             stroke-width="0.2"
             id="path128" />
          <path
             d="m 13.1,344.2 h 9.7 c 0.1,0 0,-0.1 0,0 v 2.9 c 0,0.055 0.045,0.1 0.1,0.1 h 6 c 0.055,0 0.1,-0.045 0.1,-0.1 v -2.9 c 0,-0.1 -0.1,0 0,0 h 5.8 c 0.1,0 0,-0.1 0,0 v 2.9 c 0,0.055 0.045,0.1 0.1,0.1 h 6 c 0.055,0 0.1,-0.045 0.1,-0.1 v -2.9 c 0,-0.1 -0.1,0 0,0 h 5.8 c 0.1,0 0,-0.1 0,0 v 2.9 c 0,0.055 0.045,0.1 0.1,0.1 h 6 c 0.055,0 0.1,-0.045 0.1,-0.1 v -2.9 c 0,-0.1 -0.1,0 0,0 h 5.8 c 0.1,0 0,-0.1 0,0 v 2.9 c 0,0.055 0.045,0.1 0.1,0.1 h 6 c 0.055,0 0.1,-0.045 0.1,-0.1 v -2.9 c 0,-0.1 -0.1,0 0,0 h 5.8 c 0.1,0 0,-0.1 0,0 v 2.9 c 0,0.055 0.045,0.1 0.1,0.1 h 6 c 0.055,0 0.1,-0.045 0.1,-0.1 v -2.9 c 0,-0.1 -0.1,0 0,0 h 5.8 c 0.1,0 0,-0.1 0,0 v 2.9 c 0,0.055 0.045,0.1 0.1,0.1 h 6 c 0.055,0 0.1,-0.045 0.1,-0.1 v -2.9 c 0,-0.1 -0.1,0 0,0 h 5.8 c 0.1,0 0,-0.1 0,0 v 2.9 c 0,0.055 0.045,0.1 0.1,0.1 h 6 c 0.055,0 0.1,-0.045 0.1,-0.1 v -2.9 c 0,-0.1 -0.1,0 0,0 h 5.8 c 0.1,0 0,-0.1 0,0 v 2.9 c 0,0.055 0.045,0.1 0.1,0.1 h 6 c 0.055,0 0.1,-0.045 0.1,-0.1 v -2.9 c 0,-0.1 -0.1,0 0,0 h 5.8 c 0.1,0 0,-0.1 0,0 v 2.9 c 0,0.055 0.045,0.1 0.1,0.1 h 6 c 0.055,0 0.1,-0.045 0.1,-0.1 v -2.9 c 0,-0.1 -0.1,0 0,0 h 5.8 c 0.1,0 0,-0.1 0,0 v 2.9 c 0,0.055 0.045,0.1 0.1,0.1 h 6 c 0.055,0 0.1,-0.045 0.1,-0.1 v -2.9 c 0,-0.1 -0.1,0 0,0 h 5.8 c 0.1,0 0,-0.1 0,0 v 2.9 c 0,0.055 0.045,0.1 0.1,0.1 h 6 c 0.055,0 0.1,-0.045 0.1,-0.1 v -2.9 c 0,-0.1 -0.1,0 0,0 h 5.8 c 0.1,0 0,-0.1 0,0 v 2.9 c 0,0.055 0.045,0.1 0.1,0.1 h 6 c 0.055,0 0.1,-0.045 0.1,-0.1 v -2.9 c 0,-0.1 -0.1,0 0,0 h 5.8 c 0.1,0 0,-0.1 0,0 v 2.9 c 0,0.055 0.045,0.1 0.1,0.1 h 6 c 0.055,0 0.1,-0.045 0.1,-0.1 v -2.9 c 0,-0.1 -0.1,0 0,0 h 5.8 c 0.1,0 0,-0.1 0,0 v 2.9 c 0,0.055 0.045,0.1 0.1,0.1 h 6 c 0.055,0 0.1,-0.045 0.1,-0.1 v -2.9 c 0,-0.1 -0.1,0 0,0 h 5.8 c 0.1,0 0,-0.1 0,0 v 2.9 c 0,0.055 0.045,0.1 0.1,0.1 h 6 c 0.055,0 0.1,-0.045 0.1,-0.1 v -2.9 c 0,-0.1 -0.1,0 0,0 h 5.8 c 0.1,0 0,-0.1 0,0 v 2.9 c 0,0.055 0.045,0.1 0.1,0.1 h 6 c 0.055,0 0.1,-0.045 0.1,-0.1 v -2.9 c 0,-0.1 -0.1,0 0,0 h 5.8 c 0.1,0 0,-0.1 0,0 v 2.9 c 0,0.055 0.045,0.1 0.1,0.1 h 6 c 0.055,0 0.1,-0.045 0.1,-0.1 v -2.9 c 0,-0.1 -0.1,0 0,0 h 5.8 c 0.1,0 0,-0.1 0,0 v 2.9 c 0,0.055 0.045,0.1 0.1,0.1 h 6 c 0.055,0 0.1,-0.045 0.1,-0.1 v -2.9 c 0,-0.1 -0.1,0 0,0 h 5.8 c 0.1,0 0,-0.1 0,0 v 2.9 c 0,0.055 0.045,0.1 0.1,0.1 h 6 c 0.055,0 0.1,-0.045 0.1,-0.1 v -2.9 c 0,-0.1 -0.1,0 0,0 h 5.8 c 0.1,0 0,-0.1 0,0 v 2.9 c 0,0.055 0.045,0.1 0.1,0.1 h 6 c 0.055,0 0.1,-0.045 0.1,-0.1 v -2.9 c 0,-0.1 -0.1,0 0,0 h 5.8 c 0.1,0 0,-0.1 0,0 v 2.9 c 0,0.055 0.045,0.1 0.1,0.1 h 6 c 0.055,0 0.1,-0.045 0.1,-0.1 v -2.9 c 0,-0.1 -0.1,0 0,0 h 9.7 3 c 0.055,0 0.1,-0.045 0.1,-0.1 v -9.5 c 0,-0.055 -0.045,-0.1 -0.1,-0.1 h -2.9 c -0.1,0 0,0.1 0,0 v -5.8 c 0,-0.1 -0.1,0 0,0 h 2.9 c 0.055,0 0.1,-0.045 0.1,-0.1 v -6 c 0,-0.055 -0.045,-0.1 -0.1,-0.1 h -2.9 c -0.1,0 0,0.1 0,0 v -5.8 c 0,-0.1 -0.1,0 0,0 h 2.9 c 0.055,0 0.1,-0.045 0.1,-0.1 v -9.5 c 0,-0.055 -0.045,-0.1 -0.1,-0.1 h -3 -265.6 -3 c -0.055,0 -0.1,0.045 -0.1,0.1 v 9.5 c 0,0.055 0.045,0.1 0.1,0.1 H 13 c 0.1,0 0,-0.1 0,0 v 5.8 c 0,0.1 0.1,0 0,0 h -2.9 c -0.055,0 -0.1,0.045 -0.1,0.1 v 6 c 0,0.055 0.045,0.1 0.1,0.1 H 13 c 0.1,0 0,-0.1 0,0 v 5.8 c 0,0.1 0.1,0 0,0 h -2.9 c -0.055,0 -0.1,0.045 -0.1,0.1 v 9.5 c 0,0.055 0.045,0.1 0.1,0.1 h 3"
             stroke="#000000"
             stroke-width="0.2"
             id="path129" />
        </g>
        <rect
           style="fill:none;fill-opacity:1;stroke:#0000ff;stroke-width:0.2;stroke-dasharray:none;stroke-opacity:1"
           id="rect233"
           width="11"
           height="6"
           x="116.7441"
           y="329.20001"
           rx="1"
           ry="1" />
        <rect
           style="fill:none;fill-opacity:1;stroke:#0000ff;stroke-width:0.2;stroke-dasharray:none;stroke-opacity:1"
           id="rect233-7"
           width="11"
           height="6"
           x="104.1441"
           y="329.20001"
           rx="1"
           ry="1" />
        <rect
           style="fill:none;fill-opacity:1;stroke:#0000ff;stroke-width:0.231141;stroke-dasharray:none;stroke-opacity:1"
           id="rect233-7-9"
           width="14.769"
           height="5.9688587"
           x="73.259666"
           y="329.21558"
           rx="1"
           ry="1" />
        <circle
           style="fill:none;fill-opacity:1;stroke:#0000ff;stroke-width:0.2;stroke-dasharray:none;stroke-opacity:1"
           id="path233-2"
           cx="48.499996"
           cy="332.20001"
           r="2.5" />
        <circle
           style="fill:none;fill-opacity:1;stroke:#0000ff;stroke-width:0.2;stroke-dasharray:none;stroke-opacity:1"
           id="path233-2-1"
           cx="58.499996"
           cy="332.20001"
           r="2.5" />
        <text
           xml:space="preserve"
           style="font-style:normal;font-variant:normal;font-weight:normal;font-stretch:normal;font-size:3.88056px;font-family:sans-serif;-inkscape-font-specification:'sans-serif, Normal';font-variant-ligatures:normal;font-variant-caps:normal;font-variant-numeric:normal;font-variant-east-asian:normal;text-align:start;writing-mode:lr-tb;direction:ltr;text-anchor:start;fill:#ff0000;stroke:none;stroke-width:1;stroke-dasharray:none"
           x="75.17955"
           y="327.61069"
           id="text11"><tspan
             sodipodi:role="line"
             id="tspan11"
             style="font-style:normal;font-variant:normal;font-weight:normal;font-stretch:normal;font-size:3.88056px;font-family:sans-serif;-inkscape-font-specification:'sans-serif, Normal';font-variant-ligatures:normal;font-variant-caps:normal;font-variant-numeric:normal;font-variant-east-asian:normal;fill:#ff0000;stroke:none;stroke-width:1;stroke-dasharray:none"
             x="75.17955"
             y="327.61069">HDMI</tspan></text>
        <text
           xml:space="preserve"
           style="font-style:normal;font-variant:normal;font-weight:normal;font-stretch:normal;font-size:3.88056px;font-family:sans-serif;-inkscape-font-specification:'sans-serif, Normal';font-variant-ligatures:normal;font-variant-caps:normal;font-variant-numeric:normal;font-variant-east-asian:normal;text-align:start;writing-mode:lr-tb;direction:ltr;text-anchor:start;fill:#ff0000;stroke:none;stroke-width:1;stroke-dasharray:none"
           x="117.60941"
           y="327.61069"
           id="text12"><tspan
             sodipodi:role="line"
             style="font-style:normal;font-variant:normal;font-weight:normal;font-stretch:normal;font-size:3.88056px;font-family:sans-serif;-inkscape-font-specification:'sans-serif, Normal';font-variant-ligatures:normal;font-variant-caps:normal;font-variant-numeric:normal;font-variant-east-asian:normal;fill:#ff0000;stroke:none;stroke-width:1;stroke-dasharray:none"
             x="117.60941"
             y="327.61069"
             id="tspan13">PWR</tspan></text>
        <text
           xml:space="preserve"
           style="font-style:normal;font-variant:normal;font-weight:normal;font-stretch:normal;font-size:3.88056px;font-family:sans-serif;-inkscape-font-specification:'sans-serif, Normal';font-variant-ligatures:normal;font-variant-caps:normal;font-variant-numeric:normal;font-variant-east-asian:normal;text-align:start;writing-mode:lr-tb;direction:ltr;text-anchor:start;fill:#ff0000;stroke:none;stroke-width:1;stroke-dasharray:none"
           x="105.20741"
           y="327.61069"
           id="text14"><tspan
             sodipodi:role="line"
             id="tspan14"
             style="font-style:normal;font-variant:normal;font-weight:normal;font-stretch:normal;font-size:3.88056px;font-family:sans-serif;-inkscape-font-specification:'sans-serif, Normal';font-variant-ligatures:normal;font-variant-caps:normal;font-variant-numeric:normal;font-variant-east-asian:normal;fill:#ff0000;stroke:none;stroke-width:1;stroke-dasharray:none"
             x="105.20741"
             y="327.61069">USB</tspan></text>
        <text
           xml:space="preserve"
           style="font-style:normal;font-variant:normal;font-weight:normal;font-stretch:normal;font-size:3.88056px;font-family:sans-serif;-inkscape-font-specification:'sans-serif, Normal';font-variant-ligatures:normal;font-variant-caps:normal;font-variant-numeric:normal;font-variant-east-asian:normal;text-align:start;writing-mode:lr-tb;direction:ltr;text-anchor:start;fill:#ff0000;stroke:none;stroke-width:1;stroke-dasharray:none"
           x="46.912151"
           y="327.43542"
           id="text15"><tspan
             sodipodi:role="line"
             id="tspan15"
             style="stroke-width:1"
             x="46.912151"
             y="327.43542">+</tspan></text>
        <text
           xml:space="preserve"
           style="font-style:normal;font-variant:normal;font-weight:normal;font-stretch:normal;font-size:3.88056px;font-family:sans-serif;-inkscape-font-specification:'sans-serif, Normal';font-variant-ligatures:normal;font-variant-caps:normal;font-variant-numeric:normal;font-variant-east-asian:normal;text-align:start;writing-mode:lr-tb;direction:ltr;text-anchor:start;fill:#ff0000;stroke:none;stroke-width:1;stroke-dasharray:none"
           x="57.266479"
           y="325.74527"
           id="text16"><tspan
             sodipodi:role="line"
             id="tspan16"
             style="stroke-width:1"
             x="57.266479"
             y="325.74527">_</tspan></text>
      </g>
      <circle
         style="fill:none;stroke:#0000ff;stroke-width:0.15625;stroke-dasharray:none"
         id="path18"
         cx="-84.149986"
         cy="-226.64142"
         r="1.1718749"
         transform="scale(-1)" />
      <ellipse
         style="fill:none;stroke:#0000ff;stroke-width:0.15625;stroke-dasharray:none"
         id="path19"
         cx="-84.149986"
         cy="-194.64142"
         rx="1.171875"
         ry="1.1718749"
         transform="scale(-1)" />
      <circle
         style="fill:none;stroke:#0000ff;stroke-width:0.15625;stroke-dasharray:none"
         id="path20"
         cx="-146.14999"
         cy="-226.64142"
         r="1.171875"
         transform="scale(-1)" />
      <ellipse
         style="fill:none;stroke:#0000ff;stroke-width:0.15625;stroke-dasharray:none"
         id="path21"
         cx="-146.14999"
         cy="-194.64142"
         rx="1.171875"
         ry="1.1718749"
         transform="scale(-1)" />
    </g>
    <text
       xml:space="preserve"
       style="font-size:3.88056px;font-family:sans-serif;-inkscape-font-specification:'sans-serif, Normal';text-align:start;writing-mode:lr-tb;direction:ltr;text-anchor:start;fill:#0000ff;stroke:#ff0000;stroke-width:0.2"
       x="153.00693"
       y="290.94757"
       id="text1"><tspan
         sodipodi:role="line"
         id="tspan1"
         style="stroke-width:0.2"
         x="153.00693"
         y="290.94757">Frot</tspan></text>
  </g>
</svg>
